M48
INCH,TZ
VER,1
FMAT,2
DETECT,ON
ATC,ON
T1C0.03500
T2C0.03917
T3C0.04000
T4C0.04333
T5C0.03543
T6C0.03150
%
T1
X0.84000Y2.52000
X1.14000
X1.28000
X1.56000
X1.74000
X1.28333Y2.06766
Y2.16766
Y2.36766
Y2.26766
X0.98333Y2.06766
Y2.16766
Y2.36766
Y2.26766
X1.08000Y0.60000
Y0.30000
Y0.20000
Y0.50000
Y0.40000
Y0.80000
Y0.70000
Y0.90000
X1.38000Y0.60000
Y0.30000
Y0.20000
Y0.50000
Y0.40000
Y0.80000
Y0.70000
Y0.90000
X0.24000Y1.30000
Y0.90000
Y1.10000
Y1.00000
Y1.20000
X0.10000Y1.30000
Y0.90000
Y1.10000
Y1.00000
Y1.20000
X0.62000Y0.72000
Y1.02000
X0.92000Y0.72000
Y1.02000
X0.82000Y0.72000
X0.72000
X0.82000Y1.02000
X0.72000
X0.57000Y0.11000
X0.48000Y0.47000
X0.58000Y0.37000
Y0.57000
X0.10000Y0.60000
Y0.30000
Y0.20000
Y0.50000
Y0.40000
X0.24000Y0.60000
Y0.30000
Y0.20000
Y0.50000
Y0.40000
X0.11000Y0.08000
X0.41000
X0.45000Y0.24000
X0.96000Y0.50000
Y0.40000
X0.86000Y0.30000
Y0.50000
Y0.40000
X0.74000Y0.50000
Y0.40000
X0.48000Y1.88000
X0.18000
X0.40000Y1.46000
Y1.76000
X0.29400Y2.18000
Y2.08000
Y2.28000
X0.54000Y1.98000
Y2.28000
X0.84000Y1.82000
Y2.12000
X0.96000Y1.46000
Y1.76000
X1.20000Y1.46000
Y1.76000
X1.86006Y1.25909
Y1.15909
Y1.05909
Y1.35909
Y1.55909
Y1.45909
Y1.65909
X2.00006Y1.25909
Y1.05909
Y1.15909
Y1.55909
Y1.35909
Y1.45909
Y1.65909
X1.86006Y0.70000
Y0.20000
Y0.30000
Y0.50000
Y0.40000
Y0.60000
Y0.80000
X1.72000Y0.60000
Y0.30000
Y0.50000
Y0.40000
Y0.80000
Y0.70000
X1.60000Y0.60000
X1.50000
X1.60000Y0.30000
Y0.20000
Y0.50000
Y0.40000
X1.50000Y0.30000
Y0.20000
Y0.50000
Y0.40000
X1.60000Y0.80000
Y0.70000
X1.50000
X2.00000Y0.60000
Y0.30000
Y0.20000
Y0.50000
Y0.40000
Y0.80000
Y0.70000
X1.34000Y1.90000
X1.64000
X1.48000Y1.46000
Y1.76000
X1.70000Y1.46000
Y1.76000
X1.64000Y2.06000
Y2.36000
X1.46000Y2.06000
X1.78000
Y2.36000
T2
X1.38000Y2.52000
X0.24000Y1.40000
X0.10000
Y0.70000
X0.24000
X0.96000Y0.30000
X0.74000
X1.86006Y1.75909
X2.00006
X1.86006Y0.90000
X1.72000Y0.20000
X1.50000Y0.80000
X2.00000Y0.90000
T3
X0.53000Y2.53000
X0.48000Y2.48000
X0.58000
T4
X0.26000Y2.52000
T5
X0.72000Y1.26285
Y1.16443
X0.98000Y1.26285
Y1.16443
X0.96000Y0.14000
X0.86157
X0.68000Y1.74000
Y2.14000
X0.96157Y1.92000
X1.06000
X0.82000Y2.36000
Y2.26157
X1.40157Y2.32000
X1.50000
T6
X0.49000Y1.25000
Y1.17126
M30
