M48
INCH,TZ
VER,1
FMAT,2
DETECT,ON
ATC,ON
T1C0.11811
T2C0.03500
T3C0.04331
T4C0.04724
T5C0.03543
T6C0.04333
T7C0.05083
%
T1
X0.25000Y1.14000
X0.87000Y0.26000
T2
X1.36000Y0.93000
Y1.13000
Y1.03000
X1.52000Y0.94333
Y1.14333
X0.70000Y0.92000
Y1.12000
Y1.02000
X0.39000Y0.78000
X0.69000
X0.57000Y0.44000
X0.87000
X0.61000Y0.61000
X0.51000
X0.41000
X0.24000Y0.47000
Y0.97000
X0.33000Y0.25333
Y0.12000
Y0.38667
X0.18833Y0.32000
Y0.18667
X0.10000Y0.69000
Y1.19000
X0.49000Y0.91167
X0.39000Y1.12000
X1.48000Y0.73000
T3
X1.27000Y0.49528
Y0.20000
T4
X1.29000Y0.73000
X0.89000
T5
X0.57000Y0.27780
X0.57000Y0.14000
X0.93843Y0.59000
X0.84000
X0.92256Y1.10124
X1.02000Y1.00380
T6
X1.86000Y0.91833
Y0.51590
Y0.11520
T7
X1.86000Y1.11833
Y0.71590
Y0.31520
M30
